<svg xmlns="http://www.w3.org/2000/svg" width="712" height="864"><g fill="#000" fill-rule="nonzero"><path className="st2" d="M661.6,856c-4.5,5.6-11.2,7.4-14.9,8c-208.7,0-417.5,0-626.2,0c-1.4,0-8.6-0.1-14.5-6c-3.7-3.7-6-8.8-6-14.5  v-823C0,9.2,9.2,0,20.5,0h671c2.2,0.4,9.2,1.9,14.8,8.3c4.1,4.8,5.3,9.9,5.7,12.2c0,259.6,0,519.3,0,778.9c0,2-0.2,5.4-2.2,8.9  c-3.4,5.9-9.7,7.9-12.1,8.7c-6.5,2.1-8.2-0.2-15.4,2.5c-4.3,1.6-6.7,3.5-7.4,4c-1.3,1-4.2,3.7-6.1,8.1c-2.1,4.9-0.6,6.5-2.1,12.9  C666,847.1,664.9,851.9,661.6,856z"/></g></svg>